<svg xmlns="http://www.w3.org/2000/svg" version="1.1" xmlns:xlink="http://www.w3.org/1999/xlink" xmlns:svgjs="http://svgjs.com/svgjs" width="1440" height="560" preserveAspectRatio="none" viewBox="0 0 1440 560"><g mask="url(&quot;#SvgjsMask1016&quot;)" fill="none"><rect width="1440" height="560" x="0" y="0" fill="rgba(95, 125, 203, 1)"></rect><path d="M1512 560L0 560 L0 310.77Q22.6 261.37, 72 283.97Q128.04 268.01, 144 324.06Q212.83 272.89, 264 341.73Q295.17 252.9, 384 284.07Q414.87 242.94, 456 273.81Q521.71 267.52, 528 333.23Q577.25 310.48, 600 359.72Q609.1 296.82, 672 305.91Q738.55 252.46, 792 319.01Q798.25 253.25, 864 259.5Q906.36 229.86, 936 272.22Q1024.7 240.92, 1056 329.62Q1096.92 250.55, 1176 291.47Q1198.38 241.85, 1248 264.23Q1314.05 210.28, 1368 276.33Q1429.47 265.8, 1440 327.28Q1462.9 278.18, 1512 301.09z" fill="rgba(44, 90, 183, 1)"></path><path d="M1464 560L0 560 L0 358.53Q97.63 336.16, 120 433.8Q131.25 373.06, 192 384.31Q214.07 334.38, 264 356.46Q351.7 324.16, 384 411.86Q403.48 359.34, 456 378.81Q521.68 324.5, 576 390.18Q644.1 338.28, 696 406.38Q728.14 318.52, 816 350.67Q866.71 329.38, 888 380.1Q971.45 343.56, 1008 427.01Q1056.17 355.18, 1128 403.35Q1181.07 384.42, 1200 437.49Q1207.55 373.04, 1272 380.59Q1318.82 307.41, 1392 354.23Q1452.23 342.47, 1464 402.7z" fill="#25467d"></path><path d="M1464 560L0 560 L0 426.29Q84.17 390.46, 120 474.63Q149.24 431.87, 192 461.11Q239.56 388.68, 312 436.24Q358.79 363.03, 432 409.83Q491.14 396.97, 504 456.11Q587.19 419.3, 624 502.49Q629.75 436.24, 696 441.99Q737.58 411.56, 768 453.14Q857.43 422.57, 888 512Q911.59 463.59, 960 487.17Q1000.51 407.69, 1080 448.2Q1128.53 424.73, 1152 473.25Q1180.79 382.04, 1272 410.83Q1345.63 364.47, 1392 438.1Q1451.54 425.64, 1464 485.18z" fill="#356cb1"></path><path d="M1464 560L0 560 L0 567.23Q39.44 486.67, 120 526.12Q164.02 450.14, 240 494.16Q340.61 474.77, 360 575.39Q414.34 509.73, 480 564.07Q529.04 493.12, 600 542.16Q653.41 523.57, 672 576.97Q680.92 513.89, 744 522.81Q815.42 474.23, 864 545.66Q909.27 518.93, 936 564.21Q952.88 509.09, 1008 525.96Q1052.34 498.3, 1080 542.63Q1113.82 456.44, 1200 490.26Q1274.72 444.98, 1320 519.69Q1370.45 498.14, 1392 548.6Q1447.89 532.5, 1464 588.39z" fill="white"></path></g><defs><mask id="SvgjsMask1016"><rect width="1440" height="560" fill="#ffffff"></rect></mask></defs></svg>